#!OML:ASF E:/inclinewalkrobotboard/Project1/Captureday1/Session1/subject1.ASF
:FULLY-SPECIFIED
:DEGREES
1
root 0 0 0 -0.944411258774802 -3.2156186536720766 -3.9749793249870766
lowerback 8.915758310893569 -0.1422026799398044 0.14138003202730176
upperback -1.2836995149312274 -0.17709678851904864 1.2541983491617175
thorax -6.366402901226049 -0.10064674892640046 1.2440266274625544
lowerneck -9.709333472154404 -1.106969084834907 2.5132743657283734
upperneck 10.755412843184196 -1.577767159915501 -0.7426560331312353
head 5.1074713655251385 -0.7652524262958843 -0.6623509671982223
rclavicle -5.171962198387988E-15 -1.9407738896118168E-15
rhumerus -21.504270660538083 -28.016023483276943 -76.60353954982716
rradius 61.43500017714809
rwrist 28.473621128468373
rhand -17.75947364872592 -21.223085016170593
rfingers 7.125019999999953
rthumb 8.520501041139763 -51.18018031858244
lclavicle -3.955895519351121E-15 -1.7064541942652648E-15
lhumerus -40.082293234108604 -3.241089318383467 87.7946735379192
lradius 48.567921148671935
lwrist 0.6630353669668235
lhand -13.063074474420397 -23.139941834378895
lfingers 7.125019999999903
lthumb 12.967739963308226 6.592129988961036
rfemur -18.23078094550406 6.790941756793766 32.518343539743555
rtibia 38.165939917173496
rfoot -11.310067239288934 -5.160091389462825
rtoes 14.247746839067254
lfemur -11.378516188758265 1.837320374562165 -13.964534091421054
ltibia 65.16911422842233
lfoot 5.515939970164876 -13.365653001134806
ltoes -12.020998316793154
2
root 0 0 0 -1.023196557664483 -3.3634651619544864 -3.983137372459032
lowerback 9.011632090036288 -0.12434722690261846 0.17817984084485994
upperback -1.3221330645779439 -0.1531376919520533 1.2122205662507741
thorax -6.463550767601152 -0.09229088608224145 1.1765158810095369
lowerneck -9.866059977529565 -1.0841129055726857 2.5530913162320967
upperneck 10.197181183577527 -1.5377201267287761 -0.8006115129775866
head 4.949385248654281 -0.7517811512561206 -0.6817200558472808
rclavicle -4.90345965291968E-15 -6.053920559161744E-16
rhumerus -20.3866780286214 -26.883314852661844 -76.25348958739204
rradius 64.10094127851366
rwrist 29.346959982648315
rhand -18.220642827951096 -20.795600303114306
rfingers 7.125019999999956
rthumb 8.075846982166917 -50.77591491909454
lclavicle -4.2651901383518836E-15 -3.59458878840194E-16
lhumerus -39.94857021106093 -3.375724395769787 88.05125423496511
lradius 48.59576123259758
lwrist 0.6240756300196504
lhand -12.96940893939196 -23.30544949355415
lfingers 7.125019999999907
lthumb 13.05865760801413 6.400690101554124
rfemur -13.455442802255174 8.14850339278176 34.09003268737346
rtibia 31.39565275367446
rfoot -15.266157330655366 -6.216343700773685
rtoes 12.390544877127539
lfemur -17.887997409064937 3.2694197801644704 -13.103392512315748
ltibia 67.62531273984186
lfoot 1.1782926277043977 -10.206643927128116
ltoes -10.376257928637838
3
root 0 0 0 -1.0651507939657319 -3.412569349917721 -4.007462819977232
lowerback 8.987386753099607 -0.08991091938145712 0.21739835409195685
upperback -1.4122634601797466 -0.1067078124477634 1.1608409633982277
thorax -6.546919421867901 -0.0727103123962094 1.095148349033008
lowerneck -10.089910384839573 -1.09189644715936 2.5454709981750483
upperneck 9.95379371700114 -1.5616885148495756 -0.7920228844231985
head 4.910443036858155 -0.7590863149721259 -0.6808529063154293
rclavicle -5.520066555038145E-15 1.128228992123299E-15
rhumerus -19.581315350815085 -25.547669895903894 -75.97793014655934
rradius 66.87656554974592
rwrist 29.644670523747514
rhand -18.65145955513993 -20.607993000384774
rfingers 7.125019999999958
rthumb 7.658966469968445 -50.604914177467116
lclavicle -5.209071686272999E-15 1.353877526631356E-15
lhumerus -40.28726642494086 -3.767524309274442 87.81440072182721
lradius 49.7082270676784
lwrist 1.328686748112108
lhand -12.935119643782343 -23.498586656372908
lfingers 7.125019999999912
lthumb 13.090509379560924 6.197194765622628
rfemur -7.731009705127413 9.067777144749918 35.28103314685923
rtibia 27.04554586210051
rfoot -18.755136261933707 -7.290641732686022
rtoes 9.832293890461354
lfemur -20.856760213703463 3.624658931560266 -12.954255438763106
ltibia 67.13928930434557
lfoot -0.8157868521275624 -8.476375687630966
ltoes -9.114733039002004
4
root 0 0 0 -1.1031865560757494 -3.436749671015527 -4.033307181197912
lowerback 8.980484683726822 -0.05353497007923158 0.24358544710965535
upperback -1.5035669376289769 -0.057460579830388436 1.1127856366667568
thorax -6.641471618702866 -0.0515117353998078 1.023502309426831
lowerneck -10.302516572322574 -1.1167316903876265 2.532606042774859
upperneck 9.719441014817182 -1.6098885255335031 -0.7740218794512437
head 4.876179827157175 -0.777360030385401 -0.6785294067636621
rclavicle -5.7270048825475735E-15 2.1412596004099336E-15
rhumerus -19.008852972643517 -24.609385049561716 -75.72232747313409
rradius 68.9413738908659
rwrist 29.615442982809142
rhand -18.974446820830405 -20.544462749329035
rfingers 7.125019999999961
rthumb 7.346326009710563 -50.55818417632885
lclavicle -5.577196786211039E-15 2.4241797383519243E-15
lhumerus -40.7496836297403 -4.135561633957401 87.36805302836575
lradius 50.96416610021307
lwrist 2.171041696783613
lhand -12.969768529654258 -23.584441047091023
lfingers 7.125019999999916
lthumb 13.056566616320593 6.121519424204683
rfemur -2.2107339179384864 9.314779986441007 35.9360863469371
rtibia 25.10993445470759
rfoot -21.19761497235067 -7.607183322214909
rtoes 7.9463569845412785
lfemur -22.519872727518724 3.5040472732714325 -12.923467139511125
ltibia 65.11540518632663
lfoot -1.8065789931514686 -7.300094431103957
ltoes -7.870098624955446
